<?xml version="1.0" standalone="no"?>
<!DOCTYPE svg PUBLIC "-//W3C//DTD SVG 20010904//EN"
 "http://www.w3.org/TR/2001/REC-SVG-20010904/DTD/svg10.dtd">
<svg width="17" height="16" viewBox="0 0 17 16" fill="none" xmlns="http://www.w3.org/2000/svg">
<g clip-path="url(#clip0_538_195)">
<path d="M16.562 4.70404C16.5247 3.8539 16.3881 3.26944 16.1924 2.76299C15.9905 2.22541 15.6799 1.74412 15.2729 1.34401C14.8753 0.937683 14.3938 0.621948 13.8658 0.421957C13.3595 0.22502 12.7817 0.0875415 11.9369 0.0500586C11.0857 0.00940124 10.8155 0 8.65669 0C6.49789 0 6.22767 0.00940124 5.37966 0.0468842C4.5348 0.0843671 3.95396 0.221967 3.45078 0.418783C2.91642 0.621948 2.43812 0.934509 2.0405 1.34401C1.63669 1.74412 1.32304 2.22858 1.12417 2.75994C0.928456 3.26944 0.791832 3.85073 0.754582 4.70087C0.714177 5.55736 0.704834 5.82926 0.704834 8.00156C0.704834 10.1739 0.714177 10.4458 0.751427 11.2991C0.788677 12.1492 0.925422 12.7337 1.12114 13.2401C1.32304 13.7777 1.63669 14.259 2.0405 14.6591C2.43812 15.0654 2.91958 15.3812 3.44763 15.5812C3.95396 15.7781 4.53164 15.9156 5.37663 15.9531C6.22452 15.9907 6.49486 16 8.65366 16C10.8125 16 11.0827 15.9907 11.9307 15.9531C12.7756 15.9156 13.3564 15.7781 13.8596 15.5812C14.9282 15.1654 15.773 14.3153 16.1862 13.2401C16.3818 12.7306 16.5185 12.1492 16.5558 11.2991C16.593 10.4458 16.6024 10.1739 16.6024 8.00156C16.6024 5.82926 16.5992 5.55736 16.562 4.70404ZM15.1301 11.2366C15.0959 12.018 14.9654 12.4399 14.8567 12.7212C14.5895 13.4183 14.0398 13.9715 13.3471 14.2403C13.0675 14.3497 12.6451 14.481 11.8716 14.5153C11.0329 14.5529 10.7814 14.5622 8.65985 14.5622C6.53829 14.5622 6.28361 14.5529 5.44797 14.5153C4.67142 14.481 4.25209 14.3497 3.97253 14.2403C3.62781 14.1121 3.31404 13.909 3.05935 13.6433C2.79533 13.3838 2.59343 13.0713 2.46602 12.7244C2.35731 12.4431 2.22687 12.018 2.19277 11.2397C2.1554 10.3958 2.14618 10.1426 2.14618 8.00779C2.14618 5.87297 2.1554 5.6167 2.19277 4.77596C2.22687 3.99455 2.35731 3.5726 2.46602 3.29129C2.59343 2.9443 2.79533 2.62869 3.06251 2.37229C3.32023 2.10661 3.63085 1.90345 3.97568 1.77537C4.25524 1.66597 4.67773 1.53472 5.45113 1.50029C6.2898 1.46281 6.54145 1.45341 8.66288 1.45341C10.7876 1.45341 11.0391 1.46281 11.8748 1.50029C12.6513 1.53472 13.0706 1.66597 13.3502 1.77537C13.6949 1.90345 14.0087 2.10661 14.2634 2.37229C14.5274 2.63174 14.7293 2.9443 14.8567 3.29129C14.9654 3.5726 15.0959 3.99761 15.1301 4.77596C15.1673 5.61987 15.1767 5.87297 15.1767 8.00779C15.1767 10.1426 15.1673 10.3927 15.1301 11.2366Z" fill="white"/>
<path d="M8.65691 3.8916C6.40189 3.8916 4.57227 5.73254 4.57227 8.00178C4.57227 10.271 6.40189 12.112 8.65691 12.112C10.9121 12.112 12.7416 10.271 12.7416 8.00178C12.7416 5.73254 10.9121 3.8916 8.65691 3.8916ZM8.65691 10.6679C7.19397 10.6679 6.0073 9.47399 6.0073 8.00178C6.0073 6.52957 7.19397 5.33561 8.65691 5.33561C10.12 5.33561 11.3065 6.52957 11.3065 8.00178C11.3065 9.47399 10.12 10.6679 8.65691 10.6679Z" fill="white"/>
<path d="M13.8567 3.72858C13.8567 4.25847 13.4298 4.68812 12.903 4.68812C12.3764 4.68812 11.9495 4.25847 11.9495 3.72858C11.9495 3.19857 12.3764 2.76904 12.903 2.76904C13.4298 2.76904 13.8567 3.19857 13.8567 3.72858Z" fill="white"/>
</g>
<defs>
<clipPath id="clip0_538_195">
<rect width="15.9006" height="16" fill="white" transform="translate(0.677002)"/>
</clipPath>
</defs>
</svg>
