<?xml version="1.0" standalone="no"?>
<!DOCTYPE svg PUBLIC "-//W3C//DTD SVG 20010904//EN"
 "http://www.w3.org/TR/2001/REC-SVG-20010904/DTD/svg10.dtd">
<svg width="15" height="14" viewBox="0 0 15 14" fill="none" xmlns="http://www.w3.org/2000/svg">
<g clip-path="url(#clip0_538_205)">
<path d="M13.4348 0H2.30439C1.53917 0 0.913086 0.63 0.913086 1.4V12.6C0.913086 13.37 1.53917 14 2.30439 14H13.4348C14.2 14 14.8261 13.37 14.8261 12.6V1.4C14.8261 0.63 14.2 0 13.4348 0ZM5.087 11.9H3.00004V5.6H5.087V11.9ZM4.04352 4.41C3.34787 4.41 2.79135 3.85 2.79135 3.15C2.79135 2.45 3.34787 1.89 4.04352 1.89C4.73917 1.89 5.29569 2.45 5.29569 3.15C5.29569 3.85 4.73917 4.41 4.04352 4.41ZM12.7392 11.9H10.6522V8.19C10.6522 7.63003 10.1653 7.14 9.60874 7.14C9.05222 7.14 8.56526 7.63003 8.56526 8.19V11.9H6.4783V5.6H8.56526V6.44C8.91309 5.88 9.6783 5.46 10.3044 5.46C11.6261 5.46 12.7392 6.58 12.7392 7.91V11.9Z" fill="white"/>
</g>
<defs>
<clipPath id="clip0_538_205">
<rect width="13.913" height="14" fill="white" transform="translate(0.913086)"/>
</clipPath>
</defs>
</svg> 
