<?xml version="1.0" standalone="no"?>
<!DOCTYPE svg PUBLIC "-//W3C//DTD SVG 20010904//EN"
 "http://www.w3.org/TR/2001/REC-SVG-20010904/DTD/svg10.dtd">
<svg width="21" height="20" viewBox="0 0 21 20" fill="none" xmlns="http://www.w3.org/2000/svg">
<g clip-path="url(#clip0_538_199)">
<path d="M20.0557 3.79875C19.3166 4.125 18.529 4.34125 17.7079 4.44625C18.5526 3.93875 19.1973 3.14125 19.5004 2.18C18.7128 2.6525 17.8433 2.98625 16.9166 3.1725C16.1687 2.37125 15.1029 1.875 13.9402 1.875C11.6843 1.875 9.86813 3.7175 9.86813 5.97625C9.86813 6.30125 9.89546 6.61375 9.96254 6.91125C6.57496 6.745 3.57745 5.11125 1.56378 2.6225C1.21223 3.23625 1.00602 3.93875 1.00602 4.695C1.00602 6.115 1.73273 7.37375 2.81596 8.1025C2.1613 8.09 1.51906 7.89875 0.974963 7.5975C0.974963 7.61 0.974963 7.62625 0.974963 7.6425C0.974963 9.635 2.38738 11.29 4.23956 11.6712C3.90788 11.7625 3.54639 11.8062 3.17124 11.8062C2.91037 11.8062 2.64701 11.7913 2.39981 11.7362C2.92776 13.36 4.42589 14.5538 6.20726 14.5925C4.82093 15.6838 3.06068 16.3412 1.15509 16.3412C0.820925 16.3412 0.500428 16.3263 0.179932 16.285C1.9849 17.4563 4.12403 18.125 6.43086 18.125C13.929 18.125 18.0284 11.875 18.0284 6.4575C18.0284 6.27625 18.0222 6.10125 18.0135 5.9275C18.8222 5.35 19.5017 4.62875 20.0557 3.79875Z" fill="white"/>
</g>
<defs>
<clipPath id="clip0_538_199">
<rect width="19.8758" height="20" fill="white" transform="translate(0.179932)"/>
</clipPath>
</defs>
</svg> 
